<svg xmlns="http://www.w3.org/2000/svg" xmlns:xlink="http://www.w3.org/1999/xlink" xmlns:lucid="lucid" width="1062" height="463.35"><g transform="translate(501 -99)" lucid:page-tab-id="0_0"><path d="M200.04 302.67l.1-4 .36-5.93.6-5.84.86-5.76 1.1-5.7 1.32-5.68 1.57-5.62 1.82-5.6 2.07-5.57 2.34-5.56 2.6-5.54 2.9-5.55 3.2-5.53 3.53-5.53 3.86-5.54 4.2-5.53 4.56-5.52 4.96-5.5 5.36-5.47 5.78-5.43 6.22-5.37 6.67-5.28 7.13-5.17 7.58-5.04 8.04-4.87 8.46-4.65 8.87-4.4 9.24-4.1 9.6-3.8 9.84-3.44 10.08-3.04 10.22-2.62 10.3-2.2 10.33-1.74 10.27-1.3 10.17-.85 10-.43h9.8l9.56.4 9.3.78 9 1.13 8.7 1.48 8.38 1.78 8.08 2.07 7.78 2.36 7.48 2.6 7.2 2.85 6.9 3.08 1.96.98" stroke="#fcce14" stroke-width="4" stroke-linejoin="round" fill="none"/><path d="M202.02 302.66l-.05 2.13-1.96-.13-1.98.07.05-2.17z" stroke="#fcce14" stroke-width=".05" fill="#fcce14"/><path d="M514.37 161.48l-14.7-3 4.58-8.07z" stroke="#fcce14" stroke-width="4" fill="#fcce14"/><use xlink:href="#a" transform="matrix(1,0,0,1,301.9758117965258,113.442674241625) translate(0.004999999999999893 24.88888888888889)"/><path d="M-80 345.67c0 22.1-17.9 40-40 40s-40-17.9-40-40 17.9-40 40-40 40 17.9 40 40z" stroke="#e81313" stroke-width="2" fill="#ffd9d9"/><use xlink:href="#b" transform="matrix(1,0,0,1,-155,310.6716666666666) translate(29.444444444444443 39.37934027777778)"/><path d="M80 345.67c0 22.1-17.9 40-40 40s-40-17.9-40-40 17.9-40 40-40 40 17.9 40 40z" stroke="#979ea8" stroke-width="2" fill="#dfe3e8"/><use xlink:href="#c" transform="matrix(1,0,0,1,5,310.6716666666666) translate(29.444444444444443 39.37934027777778)"/><path d="M240 345.67c0 22.1-17.9 40-40 40s-40-17.9-40-40 17.9-40 40-40 40 17.9 40 40z" stroke="#fcce14" stroke-width="2" fill="#fff7a1"/><use xlink:href="#d" transform="matrix(1,0,0,1,165,310.6716666666666) translate(29.444444444444443 39.37934027777778)"/><path d="M400 345.67c0 22.1-17.9 40-40 40s-40-17.9-40-40 17.9-40 40-40 40 17.9 40 40z" stroke="#979ea8" stroke-width="2" fill="#dfe3e8"/><use xlink:href="#e" transform="matrix(1,0,0,1,325,310.6716666666666) translate(29.444444444444443 39.37934027777778)"/><path d="M560 205.67c0 22.1-17.9 40-40 40s-40-17.9-40-40 17.9-40 40-40 40 17.9 40 40z" stroke="#979ea8" stroke-width="2" fill="#dfe3e8"/><use xlink:href="#f" transform="matrix(1,0,0,1,485,170.67166666666668) translate(29.444444444444443 39.37934027777778)"/><path d="M560 485.67c0 22.1-17.9 40-40 40s-40-17.9-40-40 17.9-40 40-40 40 17.9 40 40z" stroke="#008a0e" stroke-width="2" fill="#c3f7c8"/><use xlink:href="#g" transform="matrix(1,0,0,1,485,450.6716666666667) translate(29.444444444444443 39.37934027777778)"/><path d="M-77 345.67h53.26" stroke="#008a0e" stroke-width="4" fill="none"/><path d="M-76.95 347.65h-2.17l.12-1.96-.07-2h2.12z" stroke="#008a0e" stroke-width=".05" fill="#008a0e"/><path d="M-7.47 345.67l-14.27 4.64v-9.26z" stroke="#008a0e" stroke-width="4" fill="#008a0e"/><use xlink:href="#h" transform="matrix(1,0,0,1,-52.12408280922427,304.3383333333333) translate(0.004999999999999893 24.88888888888889)"/><path d="M83 345.67h53.26" stroke="#008a0e" stroke-width="4" fill="none"/><path d="M83.05 347.65h-2.17l.12-1.96-.07-2h2.12z" stroke="#008a0e" stroke-width=".05" fill="#008a0e"/><path d="M152.53 345.67l-14.27 4.64v-9.26z" stroke="#008a0e" stroke-width="4" fill="#008a0e"/><use xlink:href="#i" transform="matrix(1,0,0,1,106.94588574423489,304.3383333333333) translate(0.004999999999999893 24.88888888888889)"/><path d="M242 345.67h58.5" stroke="#979ea8" stroke-width="2" fill="none"/><path d="M242.03 346.65h-1.1l.07-.96-.03-1h1.06z" stroke="#979ea8" stroke-width=".05" fill="#979ea8"/><path d="M315.76 345.67l-14.26 4.64v-9.26z" stroke="#979ea8" stroke-width="2" fill="#979ea8"/><use xlink:href="#i" transform="matrix(1,0,0,1,267.5024895178198,304.3383333333333) translate(0.004999999999999893 24.88888888888889)"/><path d="M360.02 303.67l.07-3.16.24-4.03.4-3.9.58-3.82.7-3.7.86-3.64 1-3.54 1.13-3.47 1.28-3.42 1.4-3.35 1.57-3.3 1.7-3.23 1.85-3.2 2-3.15 2.17-3.1 2.34-3.06 2.52-3.03 2.7-2.98 2.87-2.94 3.07-2.88 3.3-2.82 3.5-2.76 3.72-2.7 3.95-2.6 4.2-2.53 4.44-2.42 4.67-2.3 4.92-2.17 5.15-2.02 5.4-1.86 5.6-1.66 5.82-1.47 6-1.25 6.16-1 3.22-.4" stroke="#979ea8" stroke-width="2" stroke-linejoin="round" fill="none"/><path d="M361 303.66l-.03 1.07-.96-.06-.98.04.03-1.08z" stroke="#979ea8" stroke-width=".05" fill="#979ea8"/><path d="M475.77 205.87l-13.95 5.5-.58-9.24z" stroke="#979ea8" stroke-width="2" fill="#979ea8"/><use xlink:href="#j" transform="matrix(1,0,0,1,365.8706460514263,195.71722000025883) translate(0.005000000000000782 24.88888888888889)"/><path d="M360.02 387.67l.07 3.17.24 4.03.4 3.92.58 3.8.7 3.7.86 3.63 1 3.55 1.13 3.47 1.28 3.4 1.4 3.36 1.57 3.3 1.7 3.25 1.85 3.2 2 3.14 2.17 3.1 2.34 3.06 2.52 3.02 2.7 2.97 2.87 2.93 3.07 2.88 3.3 2.82 3.5 2.76 3.72 2.7 3.95 2.6 4.2 2.53 4.44 2.42 4.67 2.3 4.92 2.16 5.15 2.02 5.4 1.86 5.6 1.67 5.82 1.48 6 1.24 6.16 1.02 3.22.4" stroke="#979ea8" stroke-width="2" stroke-linejoin="round" fill="none"/><path d="M360 386.67l.97-.03.03 1.04-1.95.04-.03-1.1z" stroke="#979ea8" stroke-width=".05" fill="#979ea8"/><path d="M475.77 485.47l-14.53 3.75.58-9.26z" stroke="#979ea8" stroke-width="2" fill="#979ea8"/><use xlink:href="#i" transform="matrix(1,0,0,1,393.62554421996066,418.8713419980347) translate(0.004999999999999893 24.88888888888889)"/><path d="M520 248.67v173.26" stroke="#008a0e" stroke-width="4" fill="none"/><path d="M520 246.67l1.98-.07v2.12H518v-2.17z" stroke="#008a0e" stroke-width=".05" fill="#008a0e"/><path d="M520 438.2l-4.63-14.27h9.26z" stroke="#008a0e" stroke-width="4" fill="#008a0e"/><use xlink:href="#i" transform="matrix(1,0,0,1,528,327.005) translate(0.004999999999999893 24.88888888888889)"/><path d="M-119.1 387.14l33.9 17.7 31.93 15.02 29.97 12.58L5.45 443.1l28.14 9.14 28.18 7.85 28.93 6.75 30.6 5.8 33.6 4.93 39.17 4.06 50.9 3.1 96.18 1.6 119.35-.58" stroke="#979ea8" stroke-width="2" stroke-linejoin="round" fill="none"/><path d="M-120 386.67l1.2-.04-.74 1.38-2.85-1.48z" stroke="#979ea8" stroke-width=".05" fill="#979ea8"/><path d="M475.76 485.7l-14.24 4.7-.04-9.28z" stroke="#979ea8" stroke-width="2" fill="#979ea8"/><use xlink:href="#k" transform="matrix(1,0,0,1,150.0266118870276,482.8156185112282) translate(0.005000000000000782 24.88888888888889)"/><path d="M-149 275a6 6 0 0 1 6-6h46a6 6 0 0 1 6 6v24.67a6 6 0 0 1-6 6h-46a6 6 0 0 1-6-6z" fill="none"/><use xlink:href="#l" transform="matrix(1,0,0,1,-143.9864814814815,273.995) translate(0 17.944444444444443)"/><path d="M500 531.67a6 6 0 0 1 6-6h37.45a6 6 0 0 1 6 6v24.68a6 6 0 0 1-6 6H506a6 6 0 0 1-6-6z" fill="none"/><use xlink:href="#m" transform="matrix(1,0,0,1,504.99999999999994,530.6716666666666) translate(0 17.944444444444443)"/><path d="M200.04 302.67l.1-4 .24-4.12m2.1-16.12l.57-3 1.33-5.67 1.57-5.62.48-1.47m5.73-15.2l.02-.06 2.6-5.54 2.9-5.55 1.92-3.3m8.88-13.6l3.98-5.23 4.56-5.52 1.7-1.88m11.33-11.64l3.07-2.88 6.22-5.37 3-2.38m13.1-9.62l5.27-3.5 8.04-4.85.5-.27m14.38-7.57l2.45-1.22 9.24-4.1 3.18-1.27m15.26-5.6l1-.36 10.08-3.04 4.53-1.16m15.84-3.62l.15-.03 10.32-1.76 5.6-.7m16.18-1.5l8.66-.37h7.6m16.24.78l4.8.4 9 1.13 2.34.4m15.94 3.16l6.9 1.77 7.78 2.36.96.33m15.2 5.77l5.4 2.4 1.98 1" stroke="#008a0e" stroke-width="4" stroke-linejoin="round" fill="none"/><path d="M202.02 302.66l-.05 2.13-1.96-.13-1.98.07.05-2.17z" stroke="#008a0e" stroke-width=".05" fill="#008a0e"/><path d="M514.37 161.48l-14.7-3 4.58-8.07z" stroke="#008a0e" stroke-width="4" fill="#008a0e"/><use xlink:href="#a" transform="matrix(1,0,0,1,301.9758117965259,113.44267424162494) translate(0.004999999999999893 24.88888888888889)"/><path d="M-110 106a6 6 0 0 1 6-6H94a6 6 0 0 1 6 6v80.34a6 6 0 0 1-6 6h-198a6 6 0 0 1-6-6z" stroke="#fcce14" stroke-width="2" fill="#fcfcca"/><use xlink:href="#n" transform="matrix(1,0,0,1,-98,112.00000000000001) translate(0 15.139756944444445)"/><use xlink:href="#o" transform="matrix(1,0,0,1,-98,112.00000000000001) translate(86.41975308641973 15.139756944444445)"/><use xlink:href="#p" transform="matrix(1,0,0,1,-98,112.00000000000001) translate(123.9259259259259 15.139756944444445)"/><use xlink:href="#q" transform="matrix(1,0,0,1,-98,112.00000000000001) translate(166.57407407407405 15.139756944444445)"/><use xlink:href="#r" transform="matrix(1,0,0,1,-98,112.00000000000001) translate(0 37.53975694444445)"/><use xlink:href="#s" transform="matrix(1,0,0,1,-98,112.00000000000001) translate(69.43827160493827 37.53975694444445)"/><use xlink:href="#t" transform="matrix(1,0,0,1,-98,112.00000000000001) translate(106.16666666666666 37.53975694444445)"/><use xlink:href="#u" transform="matrix(1,0,0,1,-98,112.00000000000001) translate(0 59.93975694444445)"/><use xlink:href="#v" transform="matrix(1,0,0,1,-98,112.00000000000001) translate(55.35185185185185 59.93975694444445)"/><use xlink:href="#o" transform="matrix(1,0,0,1,-98,112.00000000000001) translate(135.1604938271605 59.93975694444445)"/><use xlink:href="#w" transform="matrix(1,0,0,1,-98,112.00000000000001) translate(172.66666666666669 59.93975694444445)"/><path d="M-500 106a6 6 0 0 1 6-6h304.68a6 6 0 0 1 6 6v248a6 6 0 0 1-6 6H-494a6 6 0 0 1-6-6z" stroke="#3a414a" stroke-width="2" fill="#fff"/><use xlink:href="#x" transform="matrix(1,0,0,1,-488,112) translate(0 17.77777777777778)"/><path d="M-463.32 170c0 5.52-4.48 10-10 10-5.53 0-10-4.48-10-10s4.47-10 10-10c5.52 0 10 4.48 10 10z" stroke="#e81313" stroke-width="2" fill="#ffd9d9"/><path d="M-463.32 210c0 5.52-4.48 10-10 10-5.53 0-10-4.48-10-10s4.47-10 10-10c5.52 0 10 4.48 10 10z" stroke="#008a0e" stroke-width="2" fill="#c3f7c8"/><path d="M-363.32 170c0 5.52-4.48 10-10 10-5.53 0-10-4.48-10-10s4.47-10 10-10c5.52 0 10 4.48 10 10z" stroke="#979ea8" stroke-width="2" fill="#dfe3e8"/><path d="M-363.32 210c0 5.52-4.48 10-10 10-5.53 0-10-4.48-10-10s4.47-10 10-10c5.52 0 10 4.48 10 10z" stroke="#fcce14" stroke-width="2" fill="#fff7a1"/><path d="M-443.32 160.33a6 6 0 0 1 6-6h31.5a6 6 0 0 1 6 6v19.34a6 6 0 0 1-6 6h-31.5a6 6 0 0 1-6-6z" fill="none"/><use xlink:href="#y" transform="matrix(1,0,0,1,-438.32333333333327,159.32833333333332) translate(0 14.555555555555555)"/><path d="M-443.32 200.33a6 6 0 0 1 6-6h27.6a6 6 0 0 1 6 6v19.34a6 6 0 0 1-6 6h-27.6a6 6 0 0 1-6-6z" fill="none"/><use xlink:href="#z" transform="matrix(1,0,0,1,-438.3233333333332,199.32833333333332) translate(0 14.555555555555555)"/><path d="M-343.32 160.33a6 6 0 0 1 6-6h95.04a6 6 0 0 1 6 6v19.34a6 6 0 0 1-6 6h-95.04a6 6 0 0 1-6-6z" fill="none"/><use xlink:href="#A" transform="matrix(1,0,0,1,-338.3233333333332,159.32833333333332) translate(0 14.555555555555555)"/><use xlink:href="#B" transform="matrix(1,0,0,1,-338.3233333333332,159.32833333333332) translate(58.61728395061729 14.555555555555555)"/><path d="M-343.32 200.33a6 6 0 0 1 6-6h135.2a6 6 0 0 1 6 6v19.34a6 6 0 0 1-6 6h-135.2a6 6 0 0 1-6-6z" fill="none"/><use xlink:href="#C" transform="matrix(1,0,0,1,-338.32333333333327,199.32833333333338) translate(0 14.555555555555555)"/><use xlink:href="#B" transform="matrix(1,0,0,1,-338.32333333333327,199.32833333333338) translate(98.76543209876543 14.555555555555555)"/><path d="M-472.9 254.33h80.5M-472.86 254.33h-1.03" stroke="#979ea8" stroke-width="2" fill="none"/><path d="M-377.13 254.33l-14.26 4.63v-9.27z" stroke="#979ea8" stroke-width="2" fill="#979ea8"/><path d="M-471.9 294.33h75.27M-471.84 294.33h-2.05" stroke="#008a0e" stroke-width="4" fill="none"/><path d="M-380.36 294.33l-14.27 4.63v-9.27z" stroke="#008a0e" stroke-width="4" fill="#008a0e"/><path d="M-471.9 334.33h5.66m7.52 0h11.3m7.52 0h11.3m7.5 0h11.3m7.53 0h5.64M-471.84 334.33h-2.05" stroke="#fcce14" stroke-width="4" fill="none"/><path d="M-380.36 334.33l-14.27 4.63v-9.27z" stroke="#fcce14" stroke-width="4" fill="#fcce14"/><path d="M-343.27 246a6 6 0 0 1 6-6h99.88a6 6 0 0 1 6 6v19.34a6 6 0 0 1-6 6h-99.87a6 6 0 0 1-6-6z" fill="none"/><g><use xlink:href="#D" transform="matrix(1,0,0,1,-338.2739506172838,245) translate(0 14.555555555555555)"/><use xlink:href="#E" transform="matrix(1,0,0,1,-338.2739506172838,245) translate(65.4320987654321 14.555555555555555)"/></g><path d="M-343.27 286a6 6 0 0 1 6-6h103.04a6 6 0 0 1 6 6v19.34a6 6 0 0 1-6 6h-103.04a6 6 0 0 1-6-6z" fill="none"/><g><use xlink:href="#F" transform="matrix(1,0,0,1,-338.27395061728384,285) translate(0 14.555555555555555)"/><use xlink:href="#G" transform="matrix(1,0,0,1,-338.27395061728384,285) translate(62.61728395061729 14.555555555555555)"/></g><path d="M-343.27 326a6 6 0 0 1 6-6h92.33a6 6 0 0 1 6 6v19.34a6 6 0 0 1-6 6h-92.33a6 6 0 0 1-6-6z" fill="none"/><g><use xlink:href="#H" transform="matrix(1,0,0,1,-338.27395061728384,325) translate(0 14.555555555555555)"/></g><path d="M-500 389.32a6 6 0 0 1 6-6h304.68a6 6 0 0 1 6 6V510a6 6 0 0 1-6 6H-494a6 6 0 0 1-6-6z" fill="none"/><g><use xlink:href="#I" transform="matrix(1,0,0,1,-495,388.32333333333327) translate(0 17.94444444444445)"/><use xlink:href="#J" transform="matrix(1,0,0,1,-495,388.32333333333327) translate(0 49.94444444444445)"/><use xlink:href="#K" transform="matrix(1,0,0,1,-495,388.32333333333327) translate(20.30864197530864 49.94444444444445)"/><use xlink:href="#L" transform="matrix(1,0,0,1,-495,388.32333333333327) translate(70.24691358024691 49.94444444444445)"/><use xlink:href="#M" transform="matrix(1,0,0,1,-495,388.32333333333327) translate(134.8148148148148 49.94444444444445)"/><use xlink:href="#N" transform="matrix(1,0,0,1,-495,388.32333333333327) translate(185.92592592592592 49.94444444444445)"/><use xlink:href="#O" transform="matrix(1,0,0,1,-495,388.32333333333327) translate(234.69135802469137 49.94444444444445)"/><use xlink:href="#P" transform="matrix(1,0,0,1,-495,388.32333333333327) translate(0 81.94444444444446)"/><use xlink:href="#Q" transform="matrix(1,0,0,1,-495,388.32333333333327) translate(69.56790123456791 81.94444444444446)"/><use xlink:href="#R" transform="matrix(1,0,0,1,-495,388.32333333333327) translate(107.16049382716051 81.94444444444446)"/><use xlink:href="#S" transform="matrix(1,0,0,1,-495,388.32333333333327) translate(224.81481481481484 81.94444444444446)"/><use xlink:href="#T" transform="matrix(1,0,0,1,-495,388.32333333333327) translate(0 113.94444444444446)"/><use xlink:href="#U" transform="matrix(1,0,0,1,-495,388.32333333333327) translate(62.09876543209876 113.94444444444446)"/><use xlink:href="#V" transform="matrix(1,0,0,1,-495,388.32333333333327) translate(143.95061728395063 113.94444444444446)"/><use xlink:href="#W" transform="matrix(1,0,0,1,-495,388.32333333333327) translate(176.60493827160496 113.94444444444446)"/></g><defs><path fill="#fcce14" d="M23-231c66-19 162-2 134 80C139-97 87-78 49-40h116V0H15v-33c34-46 90-67 94-145 2-38-37-54-63-33l-8 34H23v-54" id="X"/><use transform="matrix(0.08641975308641975,0,0,0.08641975308641975,0,0)" xlink:href="#X" id="a"/><path d="M90-239c59 0 76 52 76 120S152 4 89 4C31 4 14-51 14-119c0-67 17-120 76-120zM89-10c45-6 45-58 45-109 0-50 0-101-45-106-45 4-43 57-43 106 0 50-2 104 43 109" id="Y"/><use transform="matrix(0.06172839506172839,0,0,0.06172839506172839,0,0)" xlink:href="#Y" id="b"/><path d="M110-14l48 5v9H32v-9l48-5v-192l-48 17v-10l69-39h9v224" id="Z"/><use transform="matrix(0.06172839506172839,0,0,0.06172839506172839,0,0)" xlink:href="#Z" id="c"/><path d="M24-231c66-21 156 2 128 81C132-92 78-66 39-27h121V0H16v-26l59-54c26-25 47-47 47-97 0-48-47-57-81-37l-6 29H24v-46" id="aa"/><use transform="matrix(0.06172839506172839,0,0,0.06172839506172839,0,0)" xlink:href="#aa" id="d"/><path d="M104-123c39 3 61 21 62 59C167 7 83 12 19-4l-2-50h12c2 29 16 43 51 43 38 0 54-19 54-55 2-43-34-49-75-50v-14c37 0 64-7 64-48 0-47-47-56-81-36l-6 29H24v-46c51-13 135-13 131 51-2 34-20 52-51 57" id="ab"/><use transform="matrix(0.06172839506172839,0,0,0.06172839506172839,0,0)" xlink:href="#ab" id="e"/><path d="M142-52V0h-30v-52H7v-23l115-162h20v160h32v25h-32zm-30-25l-1-119L27-77h85" id="ac"/><use transform="matrix(0.06172839506172839,0,0,0.06172839506172839,0,0)" xlink:href="#ac" id="f"/><path d="M134-68c4-52-44-63-88-51H29v-117h119v27H45v75c60-10 121-2 121 64C166 3 87 15 23-4l-2-50h12c1 28 14 43 47 43 39 0 51-20 54-57" id="ad"/><use transform="matrix(0.06172839506172839,0,0,0.06172839506172839,0,0)" xlink:href="#ad" id="g"/><path fill="#333" d="M150-47V0h-48v-47H5v-28l106-162h39v154h23v36h-23zm-48-36l2-107L34-83h68" id="ae"/><use transform="matrix(0.08641975308641975,0,0,0.08641975308641975,0,0)" xlink:href="#ae" id="h"/><path fill="#333" d="M23-231c66-19 162-2 134 80C139-97 87-78 49-40h116V0H15v-33c34-46 90-67 94-145 2-38-37-54-63-33l-8 34H23v-54" id="af"/><use transform="matrix(0.08641975308641975,0,0,0.08641975308641975,0,0)" xlink:href="#af" id="i"/><path fill="#333" d="M120-19l41 4V0H29v-15l41-4v-178l-41 13v-15l66-39h25v219" id="ag"/><path fill="#333" d="M90-239c59 0 76 52 76 120S152 4 89 4C31 4 14-51 14-119c0-67 17-120 76-120zm12 218c20-45 19-147 0-194-29-20-34 20-36 53-1 47-4 109 11 141 6 10 21 10 25 0" id="ah"/><g id="j"><use transform="matrix(0.08641975308641975,0,0,0.08641975308641975,0,0)" xlink:href="#ag"/><use transform="matrix(0.08641975308641975,0,0,0.08641975308641975,15.555555555555555,0)" xlink:href="#ah"/></g><g id="k"><use transform="matrix(0.08641975308641975,0,0,0.08641975308641975,0,0)" xlink:href="#ag"/><use transform="matrix(0.08641975308641975,0,0,0.08641975308641975,15.555555555555555,0)" xlink:href="#af"/></g><path fill="#e81313" d="M185-72C185 13 82 14 19-9v-63h16c2 37 21 58 61 58 46 0 69-51 31-71-42-23-106-23-106-90 0-69 87-70 148-56v56h-16l-7-32c-26-25-110-13-82 35 39 34 121 26 121 100" id="ai"/><path fill="#e81313" d="M78-41c-2 24 21 26 40 20C122 3 98 2 77 4 5 10 32-84 27-147H6v-11l25-7 21-38h26v38h35v18H78v106" id="aj"/><path fill="#e81313" d="M31-163c51-5 127-20 127 40v107l17 4V0h-61l-4-13C82 13 12 12 12-46c0-51 46-52 95-53 9-45-22-69-57-44l-7 20H31v-40zM62-47c0 30 26 34 45 23v-59c-28 0-45 6-45 36" id="ak"/><path fill="#e81313" d="M132-132c-21 0-37 9-50 16v100l26 4V0H10v-12l21-4v-133l-21-5v-11h69l2 34c17-18 35-41 71-40v61c-17 3-14-14-20-22" id="al"/><g id="l"><use transform="matrix(0.06172839506172839,0,0,0.06172839506172839,0,0)" xlink:href="#ai"/><use transform="matrix(0.06172839506172839,0,0,0.06172839506172839,12.345679012345679,0)" xlink:href="#aj"/><use transform="matrix(0.06172839506172839,0,0,0.06172839506172839,19.691358024691358,0)" xlink:href="#ak"/><use transform="matrix(0.06172839506172839,0,0,0.06172839506172839,30.80246913580247,0)" xlink:href="#al"/><use transform="matrix(0.06172839506172839,0,0,0.06172839506172839,40.617283950617285,0)" xlink:href="#aj"/></g><path fill="#008a0e" d="M6-13l30-5v-200l-30-5v-13h201v60h-16l-6-38-93-2v86h61l6-26h16v73h-16l-6-27H92v91l104-3 10-44h16l-4 66H6v-13" id="am"/><path fill="#008a0e" d="M5-154v-11h89v11l-19 5 24 37 32-37-16-5v-11h56v11l-15 4-46 54 52 81 16 4V0H90v-11l18-4-29-45-38 45 17 4V0H1v-11l15-3 53-62-48-73" id="an"/><path fill="#008a0e" d="M77-16l18 4V0H8v-12l18-4v-133l-17-5v-11h68v149zM51-196c-16 0-27-10-27-27s10-27 27-27 27 11 27 27c0 17-10 27-27 27" id="ao"/><path fill="#008a0e" d="M78-41c-2 24 21 26 40 20C122 3 98 2 77 4 5 10 32-84 27-147H6v-11l25-7 21-38h26v38h35v18H78v106" id="ap"/><g id="m"><use transform="matrix(0.06172839506172839,0,0,0.06172839506172839,0,0)" xlink:href="#am"/><use transform="matrix(0.06172839506172839,0,0,0.06172839506172839,14.814814814814813,0)" xlink:href="#an"/><use transform="matrix(0.06172839506172839,0,0,0.06172839506172839,25.925925925925924,0)" xlink:href="#ao"/><use transform="matrix(0.06172839506172839,0,0,0.06172839506172839,32.098765432098766,0)" xlink:href="#ap"/></g><path d="M55 0v-9l38-5v-207c-22 1-53 0-70 4l-5 37H7v-56h207v56h-12l-5-37-70-3v206l37 5v9H55" id="aq"/><path d="M84-170c49 0 66 33 63 87H46c-8 60 38 80 95 63v10C128-2 108 4 88 4 34 4 14-29 14-84c-1-54 22-86 70-86zm33 73c12-57-57-82-69-24-1 7-2 15-2 24h71" id="ar"/><path d="M65-12l28 4v8H7v-8l28-4v-226l-28-4v-8h58v238" id="as"/><path d="M166-85c3 67-44 102-111 85l1 64 29 4v9H6v-9l21-4v-217c-7-3-22 1-19-12h46l1 9c11-8 26-14 45-14 47 2 64 36 66 85zM56-13c53 14 83-14 78-72 7-53-33-79-78-60v132" id="at"/><path d="M90-170c52 0 76 32 76 87 0 54-24 87-77 87-51 0-75-34-75-87 0-54 24-87 76-87zM89-10c39 0 46-35 46-73 0-39-7-73-46-73-39 1-44 34-44 73s6 72 44 73" id="au"/><path d="M57-145c16-10 35-24 60-25v45c-19 1-8-30-40-17l-20 6v124l29 4v8H7v-8l21-4v-141c-8-3-24 2-21-12h48" id="av"/><path d="M54-38c-1 25 24 26 44 20v12C71 10 25 9 25-35v-115H4c-2-14 14-10 21-15l18-38h11v38h38v15H54v112" id="aw"/><path d="M32-163c41-10 102-14 102 39v112c8 3 24-2 21 12h-45l-4-17C83 13 3 13 13-46c-2-50 45-50 92-51 4-36-5-70-42-56-6 2-12 4-16 6-4 7 0 23-15 20v-36zM42-47c0 41 41 33 63 22v-59c-34 1-63-1-63 37" id="ax"/><path d="M47-200c-23 0-25-39 0-38 13 0 18 7 20 19-1 11-8 19-20 19zM65-12l28 4v8H8v-8l28-4v-141l-24-4v-8h53v153" id="ay"/><path d="M125-118c4-37-41-34-68-26v132l23 4v8H8C5-13 21-9 28-12v-141c-7-3-23 1-20-12h47l2 13c31-23 98-29 98 31v109c7 3 23-1 20 12h-72v-8l22-4v-106" id="az"/><g id="n"><use transform="matrix(0.043209876543209874,0,0,0.043209876543209874,0,0)" xlink:href="#aq"/><use transform="matrix(0.043209876543209874,0,0,0.043209876543209874,8.382716049382715,0)" xlink:href="#ar"/><use transform="matrix(0.043209876543209874,0,0,0.043209876543209874,15.253086419753085,0)" xlink:href="#as"/><use transform="matrix(0.043209876543209874,0,0,0.043209876543209874,19.574074074074073,0)" xlink:href="#ar"/><use transform="matrix(0.043209876543209874,0,0,0.043209876543209874,26.444444444444443,0)" xlink:href="#at"/><use transform="matrix(0.043209876543209874,0,0,0.043209876543209874,34.22222222222222,0)" xlink:href="#au"/><use transform="matrix(0.043209876543209874,0,0,0.043209876543209874,42,0)" xlink:href="#av"/><use transform="matrix(0.043209876543209874,0,0,0.043209876543209874,47.141975308641975,0)" xlink:href="#aw"/><use transform="matrix(0.043209876543209874,0,0,0.043209876543209874,51.46296296296296,0)" xlink:href="#ax"/><use transform="matrix(0.043209876543209874,0,0,0.043209876543209874,58.33333333333333,0)" xlink:href="#aw"/><use transform="matrix(0.043209876543209874,0,0,0.043209876543209874,62.654320987654316,0)" xlink:href="#ay"/><use transform="matrix(0.043209876543209874,0,0,0.043209876543209874,66.9753086419753,0)" xlink:href="#au"/><use transform="matrix(0.043209876543209874,0,0,0.043209876543209874,74.75308641975307,0)" xlink:href="#az"/></g><path d="M203-222l-32-4v-10h81v10l-31 4V0h-17L59-212v198l32 5v9H10v-9l31-5v-208l-31-4v-10h72L203-61v-161" id="aA"/><path d="M13-81c0-71 46-101 114-85l-1-72-28-4v-8h57v238c8 3 24-2 21 12h-47l-2-12C80 23 13-1 13-81zm77-74c-37 1-44 33-45 74 0 38 9 66 45 66 14 0 27-3 36-7v-130c-10-1-24-3-36-3" id="aB"/><g id="o"><use transform="matrix(0.043209876543209874,0,0,0.043209876543209874,0,0)" xlink:href="#aA"/><use transform="matrix(0.043209876543209874,0,0,0.043209876543209874,11.191358024691358,0)" xlink:href="#au"/><use transform="matrix(0.043209876543209874,0,0,0.043209876543209874,18.969135802469136,0)" xlink:href="#aB"/><use transform="matrix(0.043209876543209874,0,0,0.043209876543209874,26.74691358024692,0)" xlink:href="#ar"/></g><path d="M108-235c-52 28-62 95-58 178 3 56 21 97 58 119v15C7 49-17-153 67-223c12-10 25-19 41-27v15" id="aC"/><g id="p"><use transform="matrix(0.043209876543209874,0,0,0.043209876543209874,0,0)" xlink:href="#aC"/><use transform="matrix(0.043209876543209874,0,0,0.043209876543209874,5.141975308641975,0)" xlink:href="#aA"/><use transform="matrix(0.043209876543209874,0,0,0.043209876543209874,16.333333333333332,0)" xlink:href="#au"/><use transform="matrix(0.043209876543209874,0,0,0.043209876543209874,24.11111111111111,0)" xlink:href="#aB"/><use transform="matrix(0.043209876543209874,0,0,0.043209876543209874,31.888888888888886,0)" xlink:href="#ar"/></g><path d="M12-250C113-222 137-19 52 49 40 59 28 69 12 77V62C56 37 70-16 70-87c0-70-13-123-58-148v-15" id="aD"/><g id="q"><use transform="matrix(0.043209876543209874,0,0,0.043209876543209874,0,0)" xlink:href="#aa"/><use transform="matrix(0.043209876543209874,0,0,0.043209876543209874,7.777777777777778,0)" xlink:href="#aD"/></g><path d="M81-9v9H4v-9l26-5 81-224h33l83 224 30 5v9h-99v-9l31-5-23-68H73L49-14zm38-203L78-98h82" id="aE"/><path d="M45-84c0 64 52 80 104 63 1 25-30 25-55 25-56 0-80-32-80-88 0-76 62-98 131-80v46h-10c-5-15-4-31-23-35-47-10-67 21-67 69" id="aF"/><path d="M164-154L98 4H85L17-153c-7-3-20 0-17-12h77v8l-26 4L99-38l46-115-26-4v-8h61v8" id="aG"/><g id="r"><use transform="matrix(0.043209876543209874,0,0,0.043209876543209874,0,0)" xlink:href="#aE"/><use transform="matrix(0.043209876543209874,0,0,0.043209876543209874,11.191358024691358,0)" xlink:href="#aF"/><use transform="matrix(0.043209876543209874,0,0,0.043209876543209874,18.061728395061728,0)" xlink:href="#aw"/><use transform="matrix(0.043209876543209874,0,0,0.043209876543209874,22.382716049382715,0)" xlink:href="#ay"/><use transform="matrix(0.043209876543209874,0,0,0.043209876543209874,26.703703703703702,0)" xlink:href="#aG"/><use transform="matrix(0.043209876543209874,0,0,0.043209876543209874,34.48148148148148,0)" xlink:href="#ax"/><use transform="matrix(0.043209876543209874,0,0,0.043209876543209874,41.35185185185185,0)" xlink:href="#aw"/><use transform="matrix(0.043209876543209874,0,0,0.043209876543209874,45.672839506172835,0)" xlink:href="#ay"/><use transform="matrix(0.043209876543209874,0,0,0.043209876543209874,49.99382716049382,0)" xlink:href="#au"/><use transform="matrix(0.043209876543209874,0,0,0.043209876543209874,57.7716049382716,0)" xlink:href="#az"/></g><path d="M52-115c0 93 80 130 150 87l7-35h11l-1 55c-23 7-52 12-83 12C60 4 19-37 15-115c-5-113 97-141 201-114l1 51h-12l-5-30c-15-9-39-16-62-16-66 0-86 41-86 109" id="aH"/><path d="M41-130c7 48 86 23 86 84 0 56-69 57-112 41v-40c20 0 9 29 31 31 35 19 77-26 41-50-27-18-72-13-72-59 0-50 58-52 100-41v36c-19 1-8-25-28-25-21-7-50-1-46 23" id="aI"/><path d="M50-37c14 0 21 9 21 21S62 5 50 5C37 5 28-4 28-16s8-21 22-21zm0-132c12 0 21 9 21 21 0 13-9 22-21 22-13 0-22-9-22-22 0-12 9-21 22-21" id="aJ"/><g id="s"><use transform="matrix(0.043209876543209874,0,0,0.043209876543209874,0,0)" xlink:href="#aH"/><use transform="matrix(0.043209876543209874,0,0,0.043209876543209874,10.37037037037037,0)" xlink:href="#au"/><use transform="matrix(0.043209876543209874,0,0,0.043209876543209874,18.14814814814815,0)" xlink:href="#aI"/><use transform="matrix(0.043209876543209874,0,0,0.043209876543209874,24.197530864197528,0)" xlink:href="#aw"/><use transform="matrix(0.043209876543209874,0,0,0.043209876543209874,28.518518518518515,0)" xlink:href="#aJ"/></g><use transform="matrix(0.043209876543209874,0,0,0.043209876543209874,0,0)" xlink:href="#aa" id="t"/><g id="u"><use transform="matrix(0.043209876543209874,0,0,0.043209876543209874,0,0)" xlink:href="#aq"/><use transform="matrix(0.043209876543209874,0,0,0.043209876543209874,8.382716049382715,0)" xlink:href="#ar"/><use transform="matrix(0.043209876543209874,0,0,0.043209876543209874,15.253086419753085,0)" xlink:href="#as"/><use transform="matrix(0.043209876543209874,0,0,0.043209876543209874,19.574074074074073,0)" xlink:href="#ar"/><use transform="matrix(0.043209876543209874,0,0,0.043209876543209874,26.444444444444443,0)" xlink:href="#at"/><use transform="matrix(0.043209876543209874,0,0,0.043209876543209874,34.22222222222222,0)" xlink:href="#au"/><use transform="matrix(0.043209876543209874,0,0,0.043209876543209874,42,0)" xlink:href="#av"/><use transform="matrix(0.043209876543209874,0,0,0.043209876543209874,47.141975308641975,0)" xlink:href="#aw"/></g><path d="M75-17c87 13 134-18 134-103 0-78-51-106-134-100v203zm171-102C246 5 139 7 10 0v-9l31-5v-208l-31-4v-10h107c82 0 129 35 129 117" id="aK"/><g id="v"><use transform="matrix(0.043209876543209874,0,0,0.043209876543209874,0,0)" xlink:href="#aK"/><use transform="matrix(0.043209876543209874,0,0,0.043209876543209874,11.191358024691358,0)" xlink:href="#ar"/><use transform="matrix(0.043209876543209874,0,0,0.043209876543209874,18.061728395061728,0)" xlink:href="#aI"/><use transform="matrix(0.043209876543209874,0,0,0.043209876543209874,24.11111111111111,0)" xlink:href="#aw"/><use transform="matrix(0.043209876543209874,0,0,0.043209876543209874,28.432098765432098,0)" xlink:href="#ay"/><use transform="matrix(0.043209876543209874,0,0,0.043209876543209874,32.75308641975309,0)" xlink:href="#az"/><use transform="matrix(0.043209876543209874,0,0,0.043209876543209874,40.53086419753087,0)" xlink:href="#ax"/><use transform="matrix(0.043209876543209874,0,0,0.043209876543209874,47.40123456790124,0)" xlink:href="#aw"/><use transform="matrix(0.043209876543209874,0,0,0.043209876543209874,51.72222222222223,0)" xlink:href="#ay"/><use transform="matrix(0.043209876543209874,0,0,0.043209876543209874,56.043209876543216,0)" xlink:href="#au"/><use transform="matrix(0.043209876543209874,0,0,0.043209876543209874,63.820987654320994,0)" xlink:href="#az"/><use transform="matrix(0.043209876543209874,0,0,0.043209876543209874,71.59876543209877,0)" xlink:href="#aJ"/></g><use transform="matrix(0.043209876543209874,0,0,0.043209876543209874,0,0)" xlink:href="#ac" id="w"/><path d="M128-223l-36 5v199l103-3 14-49h16l-7 71H6v-13l30-5v-200l-30-5v-13h122v13" id="aL"/><path d="M12-83c0-55 22-85 75-86 52-1 66 33 63 88H64c-1 37 6 64 44 63 14 0 28-4 39-6 3 28-28 25-55 27-57 4-80-31-80-86zm90-17c2-26 0-63-27-48-10 9-11 28-11 48h38" id="aM"/><path d="M9 41c2-18 18-26 32-33C29 1 16-9 16-28l29-33c-21-9-31-25-31-51-2-56 61-65 111-53l39-20c13 12-9 24-14 36 35 54-17 114-90 92-17 34 27 28 56 28 36-1 61 12 60 46-2 46-39 62-91 62-38 0-71-6-76-38zm35-3c6 35 97 29 94-9-2-28-50-14-78-17-8 7-15 14-16 26zm20-150c0 22 4 40 23 40 20 0 24-17 24-40 0-24-4-40-24-40-19 0-23 17-23 40" id="aN"/><path d="M127-114c3-31-26-38-50-25v123l15 4V0H10v-12l16-4v-133l-16-5v-11h64l2 14c31-23 102-32 102 30v105l17 4V0h-82v-12l14-4v-98" id="aO"/><path d="M15-82c-4-69 47-101 113-83l-1-69-17-4v-12h68v234l18 4V0h-63l-4-9C77 23 5-9 15-82zm112-66c-43-16-64 17-61 65 2 33 3 67 32 67 12 0 22-3 29-8v-124" id="aP"/><g id="x"><use transform="matrix(0.06172839506172839,0,0,0.06172839506172839,0,0)" xlink:href="#aL"/><use transform="matrix(0.06172839506172839,0,0,0.06172839506172839,14.814814814814813,0)" xlink:href="#aM"/><use transform="matrix(0.06172839506172839,0,0,0.06172839506172839,24.629629629629626,0)" xlink:href="#aN"/><use transform="matrix(0.06172839506172839,0,0,0.06172839506172839,35.74074074074073,0)" xlink:href="#aM"/><use transform="matrix(0.06172839506172839,0,0,0.06172839506172839,45.55555555555555,0)" xlink:href="#aO"/><use transform="matrix(0.06172839506172839,0,0,0.06172839506172839,57.90123456790123,0)" xlink:href="#aP"/></g><path d="M178-68c0 79-95 82-154 59v-54h12c1 35 22 52 60 52 50 0 69-58 33-82-39-24-105-21-105-85 0-67 86-66 142-53v49h-12l-6-29c-31-27-121-7-89 42 28 43 119 24 119 101" id="aQ"/><g id="y"><use transform="matrix(0.04938271604938272,0,0,0.04938271604938272,0,0)" xlink:href="#aQ"/><use transform="matrix(0.04938271604938272,0,0,0.04938271604938272,9.876543209876544,0)" xlink:href="#aw"/><use transform="matrix(0.04938271604938272,0,0,0.04938271604938272,14.814814814814817,0)" xlink:href="#ax"/><use transform="matrix(0.04938271604938272,0,0,0.04938271604938272,22.666666666666668,0)" xlink:href="#av"/><use transform="matrix(0.04938271604938272,0,0,0.04938271604938272,28.543209876543212,0)" xlink:href="#aw"/></g><path d="M10-9l31-5v-208l-31-4v-10h177v57h-11l-6-38c-28-4-63-3-95-3v92h63l6-28h11v73h-11l-6-29H75v96l105-3 10-43h12l-3 62H10v-9" id="aR"/><path d="M156-12c7 3 23-1 20 12h-75v-8l22-4-38-58-45 58 23 4v8H3v-8l19-3 55-71-48-71c-7-3-23 1-20-12h75v8l-22 4 32 48 37-48-23-4v-8h59v8l-19 3-46 60" id="aS"/><g id="z"><use transform="matrix(0.04938271604938272,0,0,0.04938271604938272,0,0)" xlink:href="#aR"/><use transform="matrix(0.04938271604938272,0,0,0.04938271604938272,10.814814814814815,0)" xlink:href="#aS"/><use transform="matrix(0.04938271604938272,0,0,0.04938271604938272,19.703703703703702,0)" xlink:href="#ay"/><use transform="matrix(0.04938271604938272,0,0,0.04938271604938272,24.641975308641975,0)" xlink:href="#aw"/></g><path d="M126-118c4-37-42-32-68-25v131l24 4v8H8C5-13 21-9 28-12v-141c-7-3-23 1-20-12h48l1 13c22-15 77-30 92 2 32-22 104-36 104 29v109c8 3 24-2 21 12h-75v-8l25-4v-106c3-39-45-31-72-24 7 37 1 88 3 130l25 4v8h-78v-8l24-4v-106" id="aT"/><g id="A"><use transform="matrix(0.04938271604938272,0,0,0.04938271604938272,0,0)" xlink:href="#aA"/><use transform="matrix(0.04938271604938272,0,0,0.04938271604938272,12.790123456790125,0)" xlink:href="#au"/><use transform="matrix(0.04938271604938272,0,0,0.04938271604938272,21.679012345679013,0)" xlink:href="#av"/><use transform="matrix(0.04938271604938272,0,0,0.04938271604938272,27.555555555555557,0)" xlink:href="#aT"/><use transform="matrix(0.04938271604938272,0,0,0.04938271604938272,41.38271604938272,0)" xlink:href="#ax"/><use transform="matrix(0.04938271604938272,0,0,0.04938271604938272,49.23456790123458,0)" xlink:href="#as"/></g><g id="B"><use transform="matrix(0.04938271604938272,0,0,0.04938271604938272,0,0)" xlink:href="#aA"/><use transform="matrix(0.04938271604938272,0,0,0.04938271604938272,12.790123456790125,0)" xlink:href="#au"/><use transform="matrix(0.04938271604938272,0,0,0.04938271604938272,21.679012345679013,0)" xlink:href="#aB"/><use transform="matrix(0.04938271604938272,0,0,0.04938271604938272,30.567901234567906,0)" xlink:href="#ar"/></g><g id="C"><use transform="matrix(0.04938271604938272,0,0,0.04938271604938272,0,0)" xlink:href="#aq"/><use transform="matrix(0.04938271604938272,0,0,0.04938271604938272,9.580246913580247,0)" xlink:href="#ar"/><use transform="matrix(0.04938271604938272,0,0,0.04938271604938272,17.432098765432098,0)" xlink:href="#as"/><use transform="matrix(0.04938271604938272,0,0,0.04938271604938272,22.37037037037037,0)" xlink:href="#ar"/><use transform="matrix(0.04938271604938272,0,0,0.04938271604938272,30.222222222222218,0)" xlink:href="#at"/><use transform="matrix(0.04938271604938272,0,0,0.04938271604938272,39.111111111111114,0)" xlink:href="#au"/><use transform="matrix(0.04938271604938272,0,0,0.04938271604938272,48,0)" xlink:href="#av"/><use transform="matrix(0.04938271604938272,0,0,0.04938271604938272,53.876543209876544,0)" xlink:href="#aw"/><use transform="matrix(0.04938271604938272,0,0,0.04938271604938272,58.81481481481482,0)" xlink:href="#ax"/><use transform="matrix(0.04938271604938272,0,0,0.04938271604938272,66.66666666666667,0)" xlink:href="#aw"/><use transform="matrix(0.04938271604938272,0,0,0.04938271604938272,71.60493827160494,0)" xlink:href="#ay"/><use transform="matrix(0.04938271604938272,0,0,0.04938271604938272,76.54320987654322,0)" xlink:href="#au"/><use transform="matrix(0.04938271604938272,0,0,0.04938271604938272,85.4320987654321,0)" xlink:href="#az"/></g><g id="D"><use transform="matrix(0.04938271604938272,0,0,0.04938271604938272,0,0)" xlink:href="#aK"/><use transform="matrix(0.04938271604938272,0,0,0.04938271604938272,12.790123456790125,0)" xlink:href="#ay"/><use transform="matrix(0.04938271604938272,0,0,0.04938271604938272,17.7283950617284,0)" xlink:href="#av"/><use transform="matrix(0.04938271604938272,0,0,0.04938271604938272,23.604938271604944,0)" xlink:href="#ar"/><use transform="matrix(0.04938271604938272,0,0,0.04938271604938272,31.45679012345679,0)" xlink:href="#aF"/><use transform="matrix(0.04938271604938272,0,0,0.04938271604938272,39.308641975308646,0)" xlink:href="#aw"/><use transform="matrix(0.04938271604938272,0,0,0.04938271604938272,44.24691358024692,0)" xlink:href="#ar"/><use transform="matrix(0.04938271604938272,0,0,0.04938271604938272,52.09876543209877,0)" xlink:href="#aB"/></g><path d="M141-152c28 39 5 97-54 97-9 0-20-2-27-3L49-35c29 22 130-14 124 52-4 45-38 57-88 61C21 83-8 26 45-2 33-6 22-15 21-31l28-31c-19-9-28-26-28-51-2-51 53-65 100-52l38-20 7 8zM85 64c35 0 61-11 61-42 0-35-57-17-89-21-9 8-16 19-17 34 0 25 19 29 45 29zM52-113c1 26 7 46 35 44 28-1 34-16 35-44 0-26-6-43-34-43s-36 17-36 43" id="aU"/><g id="E"><use transform="matrix(0.04938271604938272,0,0,0.04938271604938272,0,0)" xlink:href="#aR"/><use transform="matrix(0.04938271604938272,0,0,0.04938271604938272,10.814814814814815,0)" xlink:href="#aB"/><use transform="matrix(0.04938271604938272,0,0,0.04938271604938272,19.703703703703702,0)" xlink:href="#aU"/><use transform="matrix(0.04938271604938272,0,0,0.04938271604938272,28.592592592592588,0)" xlink:href="#ar"/></g><path d="M130-224c-62 0-78 43-78 106 0 64 16 108 78 108s78-45 78-108-16-106-78-106zm0 228C53 4 15-39 15-118c-1-80 37-120 115-120s115 42 115 120C245-39 207 4 130 4" id="aV"/><g id="F"><use transform="matrix(0.04938271604938272,0,0,0.04938271604938272,0,0)" xlink:href="#aV"/><use transform="matrix(0.04938271604938272,0,0,0.04938271604938272,12.790123456790125,0)" xlink:href="#at"/><use transform="matrix(0.04938271604938272,0,0,0.04938271604938272,21.679012345679013,0)" xlink:href="#aw"/><use transform="matrix(0.04938271604938272,0,0,0.04938271604938272,26.617283950617285,0)" xlink:href="#ay"/><use transform="matrix(0.04938271604938272,0,0,0.04938271604938272,31.555555555555557,0)" xlink:href="#aT"/><use transform="matrix(0.04938271604938272,0,0,0.04938271604938272,45.38271604938272,0)" xlink:href="#ax"/><use transform="matrix(0.04938271604938272,0,0,0.04938271604938272,53.23456790123457,0)" xlink:href="#as"/></g><path d="M199-173c-1 36-21 56-49 65l64 94 26 5v9h-57l-66-103H75v89l35 5v9H13v-9l28-5v-208l-31-4v-10c80 4 190-20 189 63zM75-119c50 2 89-1 89-51 0-49-39-52-89-50v101" id="aW"/><path d="M124-13C89 8 26 15 26-45v-108c-8-3-24 2-21-12h50v118c-3 37 42 32 69 25v-131l-25-4v-8h54v153c8 3 24-2 21 12h-48" id="aX"/><g id="G"><use transform="matrix(0.04938271604938272,0,0,0.04938271604938272,0,0)" xlink:href="#aW"/><use transform="matrix(0.04938271604938272,0,0,0.04938271604938272,11.851851851851853,0)" xlink:href="#au"/><use transform="matrix(0.04938271604938272,0,0,0.04938271604938272,20.74074074074074,0)" xlink:href="#aX"/><use transform="matrix(0.04938271604938272,0,0,0.04938271604938272,29.629629629629633,0)" xlink:href="#aw"/><use transform="matrix(0.04938271604938272,0,0,0.04938271604938272,34.5679012345679,0)" xlink:href="#ar"/></g><g id="H"><use transform="matrix(0.04938271604938272,0,0,0.04938271604938272,0,0)" xlink:href="#aq"/><use transform="matrix(0.04938271604938272,0,0,0.04938271604938272,9.580246913580247,0)" xlink:href="#ar"/><use transform="matrix(0.04938271604938272,0,0,0.04938271604938272,17.432098765432098,0)" xlink:href="#as"/><use transform="matrix(0.04938271604938272,0,0,0.04938271604938272,22.37037037037037,0)" xlink:href="#ar"/><use transform="matrix(0.04938271604938272,0,0,0.04938271604938272,30.222222222222218,0)" xlink:href="#at"/><use transform="matrix(0.04938271604938272,0,0,0.04938271604938272,39.111111111111114,0)" xlink:href="#au"/><use transform="matrix(0.04938271604938272,0,0,0.04938271604938272,48,0)" xlink:href="#av"/><use transform="matrix(0.04938271604938272,0,0,0.04938271604938272,53.876543209876544,0)" xlink:href="#aw"/><use transform="matrix(0.04938271604938272,0,0,0.04938271604938272,58.81481481481482,0)" xlink:href="#ax"/><use transform="matrix(0.04938271604938272,0,0,0.04938271604938272,66.66666666666667,0)" xlink:href="#aw"/><use transform="matrix(0.04938271604938272,0,0,0.04938271604938272,71.60493827160494,0)" xlink:href="#ay"/><use transform="matrix(0.04938271604938272,0,0,0.04938271604938272,76.54320987654322,0)" xlink:href="#au"/><use transform="matrix(0.04938271604938272,0,0,0.04938271604938272,85.4320987654321,0)" xlink:href="#az"/></g><g id="I"><use transform="matrix(0.06172839506172839,0,0,0.06172839506172839,0,0)" xlink:href="#aA"/><use transform="matrix(0.06172839506172839,0,0,0.06172839506172839,15.987654320987653,0)" xlink:href="#au"/><use transform="matrix(0.06172839506172839,0,0,0.06172839506172839,27.098765432098766,0)" xlink:href="#aw"/><use transform="matrix(0.06172839506172839,0,0,0.06172839506172839,33.27160493827161,0)" xlink:href="#ar"/><use transform="matrix(0.06172839506172839,0,0,0.06172839506172839,43.086419753086425,0)" xlink:href="#aJ"/></g><use transform="matrix(0.06172839506172839,0,0,0.06172839506172839,0,0)" xlink:href="#aE" id="J"/><g id="K"><use transform="matrix(0.06172839506172839,0,0,0.06172839506172839,0,0)" xlink:href="#aG"/><use transform="matrix(0.06172839506172839,0,0,0.06172839506172839,11.11111111111111,0)" xlink:href="#ax"/><use transform="matrix(0.06172839506172839,0,0,0.06172839506172839,20.925925925925924,0)" xlink:href="#as"/><use transform="matrix(0.06172839506172839,0,0,0.06172839506172839,27.098765432098762,0)" xlink:href="#ay"/><use transform="matrix(0.06172839506172839,0,0,0.06172839506172839,33.2716049382716,0)" xlink:href="#aB"/></g><g id="L"><use transform="matrix(0.06172839506172839,0,0,0.06172839506172839,0,0)" xlink:href="#ar"/><use transform="matrix(0.06172839506172839,0,0,0.06172839506172839,9.814814814814815,0)" xlink:href="#aI"/><use transform="matrix(0.06172839506172839,0,0,0.06172839506172839,18.45679012345679,0)" xlink:href="#aF"/><use transform="matrix(0.06172839506172839,0,0,0.06172839506172839,28.271604938271608,0)" xlink:href="#ax"/><use transform="matrix(0.06172839506172839,0,0,0.06172839506172839,38.086419753086425,0)" xlink:href="#at"/><use transform="matrix(0.06172839506172839,0,0,0.06172839506172839,49.19753086419753,0)" xlink:href="#ar"/></g><g id="M"><use transform="matrix(0.06172839506172839,0,0,0.06172839506172839,0,0)" xlink:href="#av"/><use transform="matrix(0.06172839506172839,0,0,0.06172839506172839,7.345679012345679,0)" xlink:href="#au"/><use transform="matrix(0.06172839506172839,0,0,0.06172839506172839,18.45679012345679,0)" xlink:href="#aX"/><use transform="matrix(0.06172839506172839,0,0,0.06172839506172839,29.567901234567902,0)" xlink:href="#aw"/><use transform="matrix(0.06172839506172839,0,0,0.06172839506172839,35.74074074074074,0)" xlink:href="#ar"/></g><g id="N"><use transform="matrix(0.06172839506172839,0,0,0.06172839506172839,0,0)" xlink:href="#aT"/><use transform="matrix(0.06172839506172839,0,0,0.06172839506172839,17.28395061728395,0)" xlink:href="#aX"/><use transform="matrix(0.06172839506172839,0,0,0.06172839506172839,28.39506172839506,0)" xlink:href="#aI"/><use transform="matrix(0.06172839506172839,0,0,0.06172839506172839,37.03703703703704,0)" xlink:href="#aw"/></g><g id="O"><use transform="matrix(0.06172839506172839,0,0,0.06172839506172839,0,0)" xlink:href="#ax"/><use transform="matrix(0.06172839506172839,0,0,0.06172839506172839,9.814814814814815,0)" xlink:href="#aF"/><use transform="matrix(0.06172839506172839,0,0,0.06172839506172839,19.62962962962963,0)" xlink:href="#aw"/><use transform="matrix(0.06172839506172839,0,0,0.06172839506172839,25.80246913580247,0)" xlink:href="#ay"/><use transform="matrix(0.06172839506172839,0,0,0.06172839506172839,31.975308641975307,0)" xlink:href="#aG"/><use transform="matrix(0.06172839506172839,0,0,0.06172839506172839,43.08641975308642,0)" xlink:href="#ax"/><use transform="matrix(0.06172839506172839,0,0,0.06172839506172839,52.901234567901234,0)" xlink:href="#aw"/><use transform="matrix(0.06172839506172839,0,0,0.06172839506172839,59.074074074074076,0)" xlink:href="#ar"/></g><path d="M161-154L85 37C75 66 49 86 8 75V39c18-2 6 24 29 21 30-4 38-32 47-58L21-153c-7-3-20 0-17-12h77v8l-26 4 45 116 43-116-26-4v-8h62v8" id="aY"/><g id="P"><use transform="matrix(0.06172839506172839,0,0,0.06172839506172839,0,0)" xlink:href="#ar"/><use transform="matrix(0.06172839506172839,0,0,0.06172839506172839,9.814814814814815,0)" xlink:href="#aS"/><use transform="matrix(0.06172839506172839,0,0,0.06172839506172839,20.925925925925924,0)" xlink:href="#ax"/><use transform="matrix(0.06172839506172839,0,0,0.06172839506172839,30.74074074074074,0)" xlink:href="#aF"/><use transform="matrix(0.06172839506172839,0,0,0.06172839506172839,40.55555555555556,0)" xlink:href="#aw"/><use transform="matrix(0.06172839506172839,0,0,0.06172839506172839,46.7283950617284,0)" xlink:href="#as"/><use transform="matrix(0.06172839506172839,0,0,0.06172839506172839,52.90123456790124,0)" xlink:href="#aY"/></g><g id="Q"><use transform="matrix(0.06172839506172839,0,0,0.06172839506172839,0,0)" xlink:href="#au"/><use transform="matrix(0.06172839506172839,0,0,0.06172839506172839,11.11111111111111,0)" xlink:href="#az"/><use transform="matrix(0.06172839506172839,0,0,0.06172839506172839,22.22222222222222,0)" xlink:href="#ar"/></g><g id="R"><use transform="matrix(0.06172839506172839,0,0,0.06172839506172839,0,0)" xlink:href="#aw"/><use transform="matrix(0.06172839506172839,0,0,0.06172839506172839,6.172839506172839,0)" xlink:href="#ar"/><use transform="matrix(0.06172839506172839,0,0,0.06172839506172839,15.987654320987653,0)" xlink:href="#as"/><use transform="matrix(0.06172839506172839,0,0,0.06172839506172839,22.160493827160494,0)" xlink:href="#ar"/><use transform="matrix(0.06172839506172839,0,0,0.06172839506172839,31.975308641975307,0)" xlink:href="#at"/><use transform="matrix(0.06172839506172839,0,0,0.06172839506172839,43.08641975308642,0)" xlink:href="#au"/><use transform="matrix(0.06172839506172839,0,0,0.06172839506172839,54.19753086419753,0)" xlink:href="#av"/><use transform="matrix(0.06172839506172839,0,0,0.06172839506172839,61.54320987654321,0)" xlink:href="#aw"/><use transform="matrix(0.06172839506172839,0,0,0.06172839506172839,67.71604938271605,0)" xlink:href="#ax"/><use transform="matrix(0.06172839506172839,0,0,0.06172839506172839,77.53086419753086,0)" xlink:href="#aw"/><use transform="matrix(0.06172839506172839,0,0,0.06172839506172839,83.7037037037037,0)" xlink:href="#ay"/><use transform="matrix(0.06172839506172839,0,0,0.06172839506172839,89.87654320987653,0)" xlink:href="#au"/><use transform="matrix(0.06172839506172839,0,0,0.06172839506172839,100.98765432098764,0)" xlink:href="#az"/></g><g id="S"><use transform="matrix(0.06172839506172839,0,0,0.06172839506172839,0,0)" xlink:href="#az"/><use transform="matrix(0.06172839506172839,0,0,0.06172839506172839,11.11111111111111,0)" xlink:href="#au"/><use transform="matrix(0.06172839506172839,0,0,0.06172839506172839,22.22222222222222,0)" xlink:href="#aB"/><use transform="matrix(0.06172839506172839,0,0,0.06172839506172839,33.33333333333333,0)" xlink:href="#ar"/></g><path d="M53-14c58 12 82-15 82-73 0-52-35-77-82-58v131zM89 4C64 4 42-2 24-9v-229l-24-4v-8h53l-1 94c48-33 114-4 114 69 0 57-23 91-77 91" id="aZ"/><path d="M103-236c-39-15-35 32-34 71h44v15H69v136l35 6v8H15v-8l25-6v-136H11v-9l29-7c-6-59 23-100 80-84v36c-15 2-12-14-17-22" id="ba"/><g id="T"><use transform="matrix(0.06172839506172839,0,0,0.06172839506172839,0,0)" xlink:href="#aZ"/><use transform="matrix(0.06172839506172839,0,0,0.06172839506172839,11.11111111111111,0)" xlink:href="#ar"/><use transform="matrix(0.06172839506172839,0,0,0.06172839506172839,20.925925925925924,0)" xlink:href="#ba"/><use transform="matrix(0.06172839506172839,0,0,0.06172839506172839,28.2716049382716,0)" xlink:href="#au"/><use transform="matrix(0.06172839506172839,0,0,0.06172839506172839,39.38271604938271,0)" xlink:href="#av"/><use transform="matrix(0.06172839506172839,0,0,0.06172839506172839,46.728395061728385,0)" xlink:href="#ar"/></g><path d="M126-119c3-38-42-31-69-25v132l23 4v8H7v-8l21-4v-226l-24-4v-8h53l-1 98c31-22 99-31 99 31v109c7 3 23-1 20 12h-71v-8l22-4v-107" id="bb"/><g id="U"><use transform="matrix(0.06172839506172839,0,0,0.06172839506172839,0,0)" xlink:href="#av"/><use transform="matrix(0.06172839506172839,0,0,0.06172839506172839,7.345679012345679,0)" xlink:href="#ar"/><use transform="matrix(0.06172839506172839,0,0,0.06172839506172839,17.160493827160494,0)" xlink:href="#ax"/><use transform="matrix(0.06172839506172839,0,0,0.06172839506172839,26.97530864197531,0)" xlink:href="#aF"/><use transform="matrix(0.06172839506172839,0,0,0.06172839506172839,36.79012345679013,0)" xlink:href="#bb"/><use transform="matrix(0.06172839506172839,0,0,0.06172839506172839,47.90123456790124,0)" xlink:href="#ay"/><use transform="matrix(0.06172839506172839,0,0,0.06172839506172839,54.07407407407408,0)" xlink:href="#az"/><use transform="matrix(0.06172839506172839,0,0,0.06172839506172839,65.18518518518519,0)" xlink:href="#aU"/></g><g id="V"><use transform="matrix(0.06172839506172839,0,0,0.06172839506172839,0,0)" xlink:href="#aw"/><use transform="matrix(0.06172839506172839,0,0,0.06172839506172839,6.172839506172839,0)" xlink:href="#bb"/><use transform="matrix(0.06172839506172839,0,0,0.06172839506172839,17.28395061728395,0)" xlink:href="#ar"/></g><path d="M45-37c13 0 21 8 21 21C67-2 57 4 45 5 33 4 23-2 24-16c0-13 8-21 21-21" id="bc"/><g id="W"><use transform="matrix(0.06172839506172839,0,0,0.06172839506172839,0,0)" xlink:href="#ar"/><use transform="matrix(0.06172839506172839,0,0,0.06172839506172839,9.814814814814815,0)" xlink:href="#aS"/><use transform="matrix(0.06172839506172839,0,0,0.06172839506172839,20.925925925925924,0)" xlink:href="#ay"/><use transform="matrix(0.06172839506172839,0,0,0.06172839506172839,27.098765432098762,0)" xlink:href="#aw"/><use transform="matrix(0.06172839506172839,0,0,0.06172839506172839,33.2716049382716,0)" xlink:href="#bc"/></g></defs></g></svg>